<svg xmlns="http://www.w3.org/2000/svg" width="410" height="404" viewBox="0 0 410 404" fill="none">
  <path d="M399.641 59.5253L215.643 388.545C211.844 395.338 202.084 395.378 198.228 388.618L10.5817 59.5563C6.38087 52.1896 12.6802 43.2665 21.0281 44.7586L205.223 77.6824C206.398 77.8924 207.601 77.8904 208.776 77.6763L389.119 44.8058C397.439 43.2894 403.768 52.1434 399.641 59.5253Z" fill="url(#paint0_linear)"/>
  <path d="M292.965 1.5744L156.801 28.2552C154.563 28.6937 152.905 30.5685 152.771 32.8445L144.395 174.33C144.198 177.757 147.258 180.355 150.518 179.498L188.42 169.695C191.967 168.764 195.172 171.625 194.443 175.219L183.18 231.775C182.422 235.525 185.907 238.743 189.532 237.66L212.947 230.588C216.577 229.504 220.065 232.732 219.297 236.486L201.398 324.875C200.278 330.294 207.486 333.249 210.492 328.499L212.5 325.263L323.855 102.497C325.587 99.0355 322.555 95.0362 318.787 95.7916L280.629 103.229C276.984 103.96 273.923 100.694 275.022 97.1269L304.561 1.86689C305.666 -1.72174 302.517 -5.03581 298.839 -4.24508Z" fill="url(#paint1_linear)"/>
  <defs>
    <linearGradient id="paint0_linear" x1="6.00017" y1="32.9999" x2="235" y2="344" gradientUnits="userSpaceOnUse">
      <stop stop-color="#41D1FF"/>
      <stop offset="1" stop-color="#BD34FE"/>
    </linearGradient>
    <linearGradient id="paint1_linear" x1="194.651" y1="8.81818" x2="236.076" y2="292.989" gradientUnits="userSpaceOnUse">
      <stop stop-color="#FFEA83"/>
      <stop offset="0.0833333" stop-color="#FFDD35"/>
      <stop offset="1" stop-color="#FFA800"/>
    </linearGradient>
  </defs>
</svg>
